<?xml version="1.0" standalone="no"?>
<!DOCTYPE svg PUBLIC "-//W3C//DTD SVG 20010904//EN"
 "http://www.w3.org/TR/2001/REC-SVG-20010904/DTD/svg10.dtd">
<svg version="1.0" xmlns="http://www.w3.org/2000/svg"
 width="968.000000pt" height="968.000000pt" viewBox="0 0 968.000000 968.000000"
 preserveAspectRatio="xMidYMid meet">
<metadata>
Created by potrace 1.14, written by Peter Selinger 2001-2017
</metadata>
<g transform="translate(0.000000,968.000000) scale(0.100000,-0.100000)"
fill="#000000" stroke="none">
<path d="M6828 9224 c-126 -19 -235 -62 -370 -143 -21 -13 -38 -27 -38 -31 0
-5 -8 -11 -17 -14 -52 -18 -243 -244 -243 -289 0 -7 -7 -30 -15 -52 -8 -22
-14 -55 -15 -72 0 -18 -15 -66 -33 -105 -34 -74 -44 -104 -61 -178 -3 -14 -7
-36 -10 -50 -17 -77 -25 -133 -20 -141 3 -5 1 -9 -3 -9 -5 0 -9 -8 -9 -17 -1
-10 -4 -40 -7 -68 -3 -27 -9 -74 -13 -104 -15 -123 -4 -482 22 -741 3 -30 7
-77 9 -105 10 -124 14 -164 20 -225 4 -36 8 -83 10 -105 2 -22 5 -40 6 -40 2
0 5 -22 12 -75 3 -19 7 -42 11 -50 3 -8 8 -31 11 -50 3 -19 12 -66 19 -105 9
-44 13 -119 11 -200 -2 -110 -6 -139 -26 -190 -43 -107 -33 -102 -135 -71 -49
15 -96 29 -104 31 -8 2 -15 4 -15 5 0 1 -9 3 -20 5 -11 2 -31 6 -45 9 -37 9
-131 27 -160 31 -14 2 -41 6 -60 9 -207 34 -630 22 -740 -21 -8 -3 -19 -7 -25
-8 -41 -9 -129 -51 -377 -184 -102 -54 -251 -112 -423 -163 -119 -36 -188 -55
-234 -64 -14 -3 -28 -7 -33 -10 -4 -3 -16 -7 -25 -9 -122 -27 -342 -105 -374
-132 -8 -7 -19 -13 -23 -13 -4 0 -22 -11 -40 -25 -18 -14 -36 -25 -40 -25 -4
0 -14 -6 -21 -12 -30 -27 -45 -38 -50 -38 -3 0 -29 -15 -57 -34 -57 -36 -171
-94 -228 -116 -19 -7 -41 -18 -49 -24 -7 -5 -18 -11 -25 -12 -6 -1 -52 -25
-101 -55 -50 -29 -92 -52 -94 -50 -2 1 -7 -1 -10 -6 -3 -5 -31 -23 -61 -38
-30 -16 -80 -45 -110 -65 -31 -19 -64 -41 -75 -48 -49 -31 -65 -32 -110 -12
-24 11 -47 20 -50 20 -3 0 -27 10 -53 21 -73 34 -175 69 -198 69 -11 0 -24 3
-28 7 -4 4 -30 9 -57 11 -64 4 -77 -7 -123 -104 -19 -41 -37 -74 -39 -74 -3 0
-40 16 -83 36 -66 30 -121 51 -189 70 -5 2 -26 6 -45 9 -19 3 -40 8 -47 10 -6
2 -19 -2 -29 -9 -14 -11 -16 -22 -11 -66 4 -28 11 -58 17 -64 5 -7 8 -15 5
-18 -3 -3 1 -11 10 -18 8 -7 15 -19 15 -26 0 -8 4 -14 9 -14 5 0 19 -24 31
-54 26 -65 22 -77 -55 -152 -72 -70 -75 -85 -31 -141 l36 -47 -67 -34 c-67
-33 -118 -46 -138 -34 -5 4 -14 7 -20 8 -5 1 -28 10 -50 19 -22 10 -42 17 -45
17 -3 0 -15 4 -27 9 -36 13 -47 -19 -27 -78 22 -63 64 -115 108 -133 20 -7 36
-17 36 -22 0 -4 5 -8 10 -8 6 0 33 -15 61 -34 l50 -33 -78 -48 c-43 -27 -80
-50 -82 -51 -7 -6 116 -121 160 -151 69 -46 202 -101 289 -118 8 -2 17 -4 20
-5 3 -1 9 -2 13 -1 4 1 26 -8 49 -19 23 -11 46 -20 50 -20 5 0 14 -5 21 -10 7
-6 55 -32 107 -58 315 -159 367 -195 505 -358 177 -209 294 -303 525 -425 36
-19 68 -38 71 -42 3 -5 9 -8 13 -8 3 1 48 -20 99 -46 140 -72 352 -173 362
-173 3 0 35 -18 71 -40 36 -22 68 -40 69 -40 2 0 30 -17 62 -39 103 -68 192
-108 288 -127 32 -7 157 -5 190 2 49 11 70 10 71 -3 1 -7 3 -14 4 -15 1 -2 4
-14 5 -28 1 -14 4 -32 7 -40 11 -30 37 -132 45 -175 2 -11 8 -38 14 -60 12
-41 15 -57 24 -113 2 -19 7 -38 11 -43 3 -5 7 -26 9 -47 3 -20 7 -48 10 -62 3
-14 8 -38 11 -55 4 -16 7 -136 8 -265 2 -240 5 -271 34 -350 20 -55 82 -174
94 -178 4 -2 8 -10 8 -18 0 -8 3 -14 8 -14 4 0 13 -12 20 -28 35 -77 223 -262
266 -262 9 0 16 -4 16 -9 0 -8 24 -16 80 -28 8 -1 62 -3 120 -4 81 -1 114 -6
142 -20 46 -23 71 -24 103 -3 14 9 25 14 25 11 0 -3 37 8 83 25 45 16 87 30
92 31 6 2 15 6 21 9 6 4 49 10 95 13 84 5 151 12 179 19 41 9 107 20 125 19
32 0 99 -21 120 -37 27 -21 45 -20 65 4 21 24 21 35 -4 75 -17 30 -37 42 -101
65 -20 7 -36 24 -50 52 -11 23 -19 46 -17 50 1 4 -2 8 -7 8 -5 0 -13 10 -17
22 -9 29 -51 95 -82 129 l-23 27 25 25 c16 16 24 33 21 47 -2 13 -6 23 -7 24
-2 1 -17 11 -34 23 -29 20 -73 33 -119 35 -30 1 -156 -11 -185 -18 -40 -9
-310 -15 -323 -7 -7 4 -21 9 -32 11 -26 5 -35 7 -60 16 -11 5 -33 13 -50 18
-32 12 -122 65 -142 84 -7 6 -13 36 -14 65 -1 35 -12 75 -30 114 -25 55 -34
82 -44 140 -2 11 -21 63 -43 115 -38 93 -58 164 -53 185 5 18 3 219 -3 250
-12 66 -16 135 -7 135 5 0 14 -6 20 -14 7 -8 26 -18 42 -21 16 -4 31 -11 34
-16 4 -5 16 -9 29 -9 12 0 27 -5 34 -12 7 -7 12 -9 12 -5 0 3 12 2 28 -4 15
-6 36 -13 47 -15 230 -52 385 -66 591 -50 l70 5 2 -62 c2 -34 4 -77 5 -94 2
-18 0 -33 -5 -33 -4 0 -5 -6 -2 -13 2 -7 -2 -42 -11 -78 -9 -35 -17 -68 -18
-74 -2 -5 -6 -16 -11 -23 -4 -7 -5 -16 -2 -19 3 -3 -1 -21 -9 -39 -8 -19 -12
-34 -10 -34 2 0 -1 -15 -6 -32 -18 -59 -21 -99 -9 -129 7 -16 15 -30 19 -30
26 -6 71 -4 71 3 0 4 8 8 19 8 10 0 24 7 31 15 11 14 14 13 26 -3 17 -24 23
-71 13 -98 -4 -12 -5 -25 -1 -28 3 -4 7 -16 9 -27 8 -50 85 -144 178 -216 79
-61 216 -116 322 -129 87 -12 108 -10 105 6 -2 8 -6 23 -8 33 -7 37 -16 57
-25 57 -5 0 -9 4 -9 8 0 10 31 9 48 -2 20 -12 184 -9 249 4 49 10 95 25 183
57 33 12 260 20 277 10 5 -3 20 -8 34 -11 13 -2 31 -7 41 -11 23 -9 34 30 17
62 -7 14 -43 39 -85 59 l-72 36 14 34 c8 19 11 34 8 34 -4 0 -2 6 4 13 5 6 12
28 15 47 21 135 52 206 76 174 10 -14 40 -19 94 -15 9 0 17 9 17 19 0 27 -64
97 -102 111 -18 7 -40 16 -49 21 -9 5 -34 7 -55 5 -73 -6 -162 -16 -186 -21
-13 -2 -38 -7 -57 -10 -43 -7 -47 -8 -161 -34 -104 -23 -145 -27 -297 -30
-102 -2 -123 2 -123 23 0 7 -11 22 -25 35 -20 19 -23 30 -18 60 9 61 9 105 1
142 -5 19 -11 55 -13 80 -3 25 -7 52 -8 62 -4 24 -47 104 -69 127 -18 20 -18
21 9 27 16 3 53 13 83 21 30 8 62 17 70 18 8 2 15 4 15 5 0 1 7 3 15 5 8 1 49
13 90 25 41 12 80 23 85 25 6 1 17 5 25 8 8 3 35 11 60 18 25 7 50 14 55 15
93 30 274 74 435 108 14 3 61 15 105 26 44 12 87 23 95 24 60 15 170 55 249
93 95 45 320 178 333 197 4 6 8 8 8 4 0 -9 203 128 290 196 220 172 374 360
448 546 29 72 72 217 77 255 2 17 4 30 5 30 6 0 15 63 26 195 17 202 4 501
-31 683 -5 27 -7 40 -20 112 -18 103 -53 229 -93 330 -23 62 -31 83 -33 93 -1
4 -10 19 -21 35 -11 15 -16 27 -12 27 4 0 -1 9 -10 19 -10 11 -18 25 -20 33
-3 20 -109 197 -221 368 -133 202 -209 321 -218 340 -4 8 -13 24 -20 35 -152
249 -339 640 -413 865 -19 58 -37 121 -40 140 -3 19 -10 55 -16 80 -14 62 -20
209 -11 251 8 34 10 35 38 27 17 -4 46 -23 66 -41 195 -176 453 -345 557 -363
14 -3 29 -7 33 -9 6 -5 79 -13 171 -20 26 -2 51 -6 56 -9 5 -3 28 -8 52 -11
23 -3 46 -7 50 -10 5 -3 21 -7 37 -9 41 -6 83 -21 131 -46 45 -24 100 -28 144
-11 14 5 29 7 32 4 3 -4 6 -1 6 6 0 7 4 10 9 6 13 -8 95 77 115 120 24 51 27
71 15 126 -22 103 -131 214 -243 249 -40 13 -102 45 -122 65 -6 5 -26 21 -44
35 -76 57 -100 79 -210 191 -152 155 -180 186 -217 239 -29 43 -91 215 -99
273 -2 15 -6 33 -10 39 -4 7 -9 57 -10 113 -6 253 -22 340 -82 428 -60 89
-144 173 -237 237 -27 19 -52 37 -55 40 -6 7 -182 96 -193 98 -4 1 -35 10 -70
21 -111 34 -225 43 -339 25z"/>
</g>
</svg>
